PathFileType	4	(X/Y/Z)	 2.2Hzlow3min.trc
DataRate	CameraRate	NumFrames	NumMarkers	Units	OrigDataRate	OrigDataStartFrame	OrigNumFrames
200	200	9	35	m	200	1	1000
Frame#	Time	C7			LSH			RSH			MAN			RASI			LASI			HIPR			HIPL			RPSI			LPSI			COX			RTHI1			RTHI2			RTHI3			RTHI4			RSHA1			RSHA2			RSHA3			RSHA4			RHEEL			RMET5			RMET1			RTOE			LTHI1			LTHI2			LTHI3			LTHI4			LSHA1			LSHA2			LSHA3			LSHA4			LHEEL			LMET5			LMET1			LTOE			
		X1	Y1	Z1	X2	Y2	Z2	X3	Y3	Z3	X4	Y4	Z4	X5	Y5	Z5	X6	Y6	Z6	X7	Y7	Z7	X8	Y8	Z8	X9	Y9	Z9	X10	Y10	Z10	X11	Y11	Z11	X12	Y12	Z12	X13	Y13	Z13	X14	Y14	Z14	X15	Y15	Z15	X16	Y16	Z16	X17	Y17	Z17	X18	Y18	Z18	X19	Y19	Z19	X20	Y20	Z20	X21	Y21	Z21	X22	Y22	Z22	X23	Y23	Z23	X24	Y24	Z24	X25	Y25	Z25	X26	Y26	Z26	X27	Y27	Z27	X28	Y28	Z28	X29	Y29	Z29	X30	Y30	Z30	X31	Y31	Z31	X32	Y32	Z32	X33	Y33	Z33	X34	Y34	Z34	X35	Y35	Z35	
1	0.0050	-0.000000	0.000000	-0.000000	-0.153951	1.382526	-0.707068	-0.174530	1.368898	-0.365384	-0.100147	1.337686	-0.532619	-0.106056	0.943973	-0.404942	-0.093851	0.937411	-0.626432	-0.160889	1.003118	-0.385571	-0.147807	0.984302	-0.661821	-0.259250	0.981930	-0.472453	-0.257160	0.976547	-0.578867	-0.259974	0.987637	-0.522377	-0.189535	0.740708	-0.351052	-0.168546	0.684885	-0.351555	-0.106498	0.705567	-0.348168	-0.121366	0.765190	-0.348361	-0.186896	0.367724	-0.351688	-0.206828	0.329455	-0.356479	-0.150769	0.309470	-0.370738	-0.136000	0.347236	-0.369486	-0.321627	0.099556	-0.421654	-0.181499	0.030874	-0.366593	-0.148200	0.038037	-0.438320	-0.121188	0.028264	-0.435046	-0.161795	0.728970	-0.692069	-0.133959	0.674397	-0.685109	-0.075461	0.699429	-0.673905	-0.094726	0.756788	-0.679163	-0.175670	0.330637	-0.684123	-0.195978	0.295410	-0.684257	-0.141599	0.271550	-0.663639	-0.127443	0.313352	-0.666865	-0.320504	0.087632	-0.641550	-0.172435	0.033008	-0.678309	-0.142008	0.037883	-0.610377	-0.116201	0.026397	-0.605211	
2	0.0100	-0.000000	0.000000	-0.000000	-0.153752	1.377104	-0.707109	-0.174538	1.363443	-0.365321	-0.099677	1.331959	-0.532604	-0.106486	0.938526	-0.404919	-0.094353	0.932024	-0.626718	-0.161196	0.997270	-0.385330	-0.148361	0.978509	-0.662183	-0.260210	0.976455	-0.472265	-0.257869	0.970906	-0.578947	-0.260686	0.982137	-0.522444	-0.189690	0.734747	-0.351546	-0.168253	0.679039	-0.351869	-0.106436	0.700146	-0.347872	-0.121747	0.759757	-0.348357	-0.185836	0.363836	-0.351887	-0.206006	0.325719	-0.356626	-0.150134	0.305184	-0.370730	-0.135093	0.342838	-0.369609	-0.322810	0.095892	-0.421729	-0.182019	0.030240	-0.366095	-0.148394	0.037903	-0.438222	-0.121166	0.028191	-0.435003	-0.161220	0.722862	-0.691691	-0.132854	0.668527	-0.684929	-0.074559	0.694082	-0.673969	-0.094348	0.751259	-0.679062	-0.174319	0.326519	-0.683749	-0.194764	0.291472	-0.683875	-0.140475	0.267379	-0.663332	-0.126110	0.309143	-0.666536	-0.321716	0.084505	-0.641529	-0.172928	0.032403	-0.678860	-0.142135	0.037809	-0.610627	-0.116165	0.026374	-0.605322	
3	0.0150	-0.000000	0.000000	-0.000000	-0.153592	1.371709	-0.707196	-0.174646	1.357994	-0.365203	-0.099221	1.326222	-0.532591	-0.106983	0.933071	-0.404852	-0.094841	0.926616	-0.627013	-0.161605	0.991366	-0.385022	-0.148939	0.972597	-0.662571	-0.261050	0.970742	-0.472312	-0.258635	0.965137	-0.579062	-0.261478	0.976529	-0.522533	-0.189826	0.728899	-0.351927	-0.167965	0.673350	-0.352066	-0.106391	0.694939	-0.347507	-0.122134	0.754464	-0.348193	-0.184433	0.359762	-0.351993	-0.204835	0.321733	-0.356817	-0.149117	0.300869	-0.370936	-0.133864	0.338412	-0.369842	-0.323855	0.092630	-0.421929	-0.182420	0.029771	-0.365779	-0.148584	0.037783	-0.438182	-0.121135	0.028121	-0.435001	-0.160571	0.716745	-0.691427	-0.131695	0.662661	-0.684841	-0.073573	0.688722	-0.674271	-0.093876	0.745712	-0.679242	-0.172949	0.322293	-0.683400	-0.193512	0.287385	-0.683480	-0.139346	0.263170	-0.662800	-0.124811	0.304884	-0.666056	-0.322838	0.081529	-0.641331	-0.173365	0.031923	-0.679202	-0.142275	0.037734	-0.610762	-0.116148	0.026353	-0.605402	
4	0.0200	-0.000000	0.000000	-0.000000	-0.153439	1.366335	-0.707301	-0.174774	1.352567	-0.365066	-0.098772	1.320513	-0.532576	-0.107490	0.927650	-0.404767	-0.095325	0.921232	-0.627303	-0.162036	0.985470	-0.384716	-0.149526	0.966673	-0.662967	-0.261942	0.965017	-0.472352	-0.259432	0.959352	-0.579182	-0.262459	0.970955	-0.522663	-0.189968	0.723158	-0.352301	-0.167697	0.667773	-0.352275	-0.106352	0.689813	-0.347127	-0.122519	0.749265	-0.348002	-0.182944	0.355691	-0.352105	-0.203574	0.317770	-0.357018	-0.148020	0.296588	-0.371217	-0.132561	0.334024	-0.370116	-0.324859	0.089462	-0.422208	-0.182811	0.029332	-0.365495	-0.148770	0.037677	-0.438138	-0.121093	0.028062	-0.434995	-0.159953	0.710664	-0.691193	-0.130587	0.656815	-0.684766	-0.072629	0.683370	-0.674615	-0.093427	0.740181	-0.679471	-0.171580	0.318111	-0.683039	-0.192286	0.283348	-0.683073	-0.138266	0.258978	-0.662243	-0.123538	0.300628	-0.665561	-0.323930	0.078595	-0.641073	-0.173796	0.031465	-0.679517	-0.142409	0.037667	-0.610886	-0.116126	0.026336	-0.605474	
5	0.0250	-0.000000	0.000000	-0.000000	-0.153323	1.361011	-0.707461	-0.174972	1.347186	-0.364877	-0.098342	1.314852	-0.532559	-0.108044	0.922283	-0.404636	-0.095791	0.915881	-0.627596	-0.162564	0.979577	-0.384382	-0.150136	0.960690	-0.663385	-0.262853	0.959188	-0.472483	-0.260288	0.953495	-0.579323	-0.263755	0.965404	-0.523027	-0.190100	0.717624	-0.352618	-0.167442	0.662428	-0.352447	-0.106351	0.684926	-0.346746	-0.122901	0.744266	-0.347717	-0.181196	0.351566	-0.352187	-0.202051	0.313747	-0.357246	-0.146660	0.292365	-0.371680	-0.131021	0.329693	-0.370493	-0.325725	0.086597	-0.422644	-0.183139	0.029006	-0.365341	-0.148940	0.037589	-0.438123	-0.121033	0.028016	-0.435002	-0.159361	0.704653	-0.691040	-0.129545	0.651032	-0.684742	-0.071716	0.678046	-0.675114	-0.092975	0.734684	-0.679884	-0.170216	0.313967	-0.682663	-0.191083	0.279338	-0.682636	-0.137246	0.254816	-0.661552	-0.122310	0.296387	-0.664976	-0.324944	0.075784	-0.640645	-0.174192	0.031093	-0.679699	-0.142538	0.037604	-0.610940	-0.116102	0.026325	-0.605526	
6	0.0300	-0.000000	0.000000	-0.000000	-0.153233	1.355767	-0.707671	-0.175219	1.341883	-0.364631	-0.097983	1.309252	-0.532555	-0.108623	0.917036	-0.404451	-0.096241	0.910619	-0.627871	-0.163175	0.973751	-0.384047	-0.150774	0.954713	-0.663819	-0.263889	0.953364	-0.472605	-0.261212	0.947610	-0.579493	-0.265138	0.959900	-0.523417	-0.190231	0.712391	-0.352929	-0.167213	0.657370	-0.352650	-0.106374	0.680253	-0.346368	-0.123268	0.739522	-0.347388	-0.179250	0.347524	-0.352308	-0.200326	0.309832	-0.357502	-0.145117	0.288284	-0.372315	-0.129304	0.325496	-0.370976	-0.326454	0.083992	-0.423280	-0.183446	0.028772	-0.365286	-0.149077	0.037525	-0.438121	-0.120950	0.027982	-0.435007	-0.158872	0.698822	-0.690959	-0.128668	0.645403	-0.684741	-0.070936	0.672797	-0.675665	-0.092586	0.729293	-0.680405	-0.168891	0.309986	-0.682248	-0.189956	0.275496	-0.682159	-0.136340	0.250758	-0.660802	-0.121134	0.292243	-0.664342	-0.325889	0.073095	-0.640045	-0.174580	0.030783	-0.679794	-0.142657	0.037561	-0.610960	-0.116074	0.026322	-0.605561	
7	0.0350	-0.000000	0.000000	-0.000000	-0.153186	1.350646	-0.707946	-0.175516	1.336683	-0.364328	-0.097707	1.303773	-0.532562	-0.109233	0.911962	-0.404204	-0.096664	0.905502	-0.628144	-0.163930	0.968017	-0.383709	-0.151451	0.948768	-0.664268	-0.264999	0.947565	-0.472772	-0.262165	0.941745	-0.579670	-0.266553	0.954487	-0.523827	-0.190346	0.707504	-0.353248	-0.166983	0.652663	-0.352900	-0.106395	0.675908	-0.346026	-0.123614	0.735102	-0.347033	-0.177115	0.343647	-0.352476	-0.198420	0.306108	-0.357802	-0.143412	0.284408	-0.373101	-0.127418	0.321510	-0.371553	-0.327021	0.081684	-0.424125	-0.183727	0.028635	-0.365346	-0.149173	0.037484	-0.438142	-0.120836	0.027966	-0.435009	-0.158508	0.693274	-0.690919	-0.127999	0.640015	-0.684752	-0.070328	0.667709	-0.676271	-0.092277	0.724099	-0.681028	-0.167619	0.306226	-0.681771	-0.188922	0.271886	-0.681616	-0.135545	0.246874	-0.659998	-0.120041	0.288258	-0.663672	-0.326750	0.070530	-0.639237	-0.174953	0.030539	-0.679791	-0.142749	0.037526	-0.610929	-0.116023	0.026330	-0.605579	
8	0.0400	-0.000000	0.000000	-0.000000	-0.153188	1.345700	-0.708280	-0.175841	1.331635	-0.363978	-0.097521	1.298483	-0.532583	-0.109870	0.907128	-0.403891	-0.097045	0.900599	-0.628415	-0.164860	0.962441	-0.383376	-0.152171	0.942937	-0.664725	-0.266162	0.941890	-0.472985	-0.263112	0.935990	-0.579825	-0.267952	0.949253	-0.524250	-0.190430	0.702990	-0.353600	-0.166716	0.648326	-0.353218	-0.106404	0.671961	-0.345784	-0.123932	0.731033	-0.346691	-0.174854	0.340048	-0.352685	-0.196409	0.302682	-0.358157	-0.141618	0.280816	-0.373977	-0.125420	0.317796	-0.372200	-0.327429	0.079658	-0.425179	-0.183995	0.028576	-0.365509	-0.149199	0.037446	-0.438199	-0.120689	0.027967	-0.434997	-0.158292	0.688142	-0.690895	-0.127581	0.634999	-0.684760	-0.069926	0.662879	-0.676861	-0.092059	0.719207	-0.681696	-0.166437	0.302769	-0.681219	-0.188004	0.268574	-0.681001	-0.134874	0.243236	-0.659169	-0.119038	0.284514	-0.662979	-0.327534	0.068082	-0.638219	-0.175318	0.030355	-0.679697	-0.142812	0.037495	-0.610856	-0.115946	0.026343	-0.605583	
9	0.0450	-0.000000	0.000000	-0.000000	-0.153223	1.340960	-0.708655	-0.176154	1.326812	-0.363606	-0.097434	1.293441	-0.532617	-0.110523	0.902599	-0.403509	-0.097366	0.895986	-0.628681	-0.165993	0.957108	-0.383061	-0.152945	0.937302	-0.665186	-0.267326	0.936461	-0.473261	-0.263986	0.930473	-0.579956	-0.268939	0.944275	-0.524628	-0.190461	0.698853	-0.353985	-0.166382	0.644355	-0.353593	-0.106386	0.668403	-0.345651	-0.124205	0.727327	-0.346397	-0.172562	0.336820	-0.352987	-0.194378	0.299647	-0.358564	-0.139810	0.277571	-0.374887	-0.123387	0.314419	-0.372886	-0.327681	0.077916	-0.426381	-0.184260	0.028586	-0.365764	-0.149156	0.037411	-0.438289	-0.120516	0.027966	-0.434981	-0.158218	0.683538	-0.690869	-0.127410	0.630468	-0.684753	-0.069727	0.658411	-0.677391	-0.091926	0.714720	-0.682342	-0.165393	0.299645	-0.680587	-0.187220	0.265594	-0.680307	-0.134308	0.239905	-0.658347	-0.118142	0.281087	-0.662280	-0.328248	0.065749	-0.637002	-0.175689	0.030224	-0.679521	-0.142848	0.037470	-0.610752	-0.115853	0.026361	-0.605590	
